# xmcd CD database file
# Copyright (C) 1995-1998 Ti Kan
#
# Track frame offsets:
#	150
#	15409
#	28085
#	48608
#	64124
#	73412
#	88995
#	101707
#	122998
#	137288
#	148812
#	159276
#	177414
#	186058
#	214535
#	232874
#	246327
#	255495
#
# Disc length: 3664 seconds
#
# Revision: 1
# Processed by: cddbd v1.5.1PL2 Copyright (c) Steve Scherf et al.
# Submitted via: CDex 1.30Release
#
DISCID=030e4e12
DTITLE=TIN MEN - FREAKS FOR INDUSTRY
DYEAR=2005
DGENRE=Blues
TTITLE0=Palm Court Strut
TTITLE1=Jingling Down The Street
TTITLE2=So Uptown
TTITLE3=Sweet and Slow
TTITLE4=Crazy 'Bout My Baby
TTITLE5=Feets Too Big
TTITLE6=The Man From Harlem
TTITLE7=The Woman I Love
TTITLE8=Baby
TTITLE9=Otis Convalesces
TTITLE10=I'm Gonna Be  Wheel Someday
TTITLE11=Werewolf
TTITLE12=Washington Post March
TTITLE13=Blackbird Special
TTITLE14=Mess Around
TTITLE15=The Ballad of Cap'n Sandy
TTITLE16=Immagrant Song
TTITLE17=Great Change Since I've Been Born
EXTD=YEAR: 2005 ID3G:   0
EXTT0=
EXTT1=
EXTT2=
EXTT3=
EXTT4=
EXTT5=
EXTT6=
EXTT7=
EXTT8=
EXTT9=
EXTT10=
EXTT11=
EXTT12=
EXTT13=
EXTT14=
EXTT15=
EXTT16=
EXTT17=
PLAYORDER=
